<svg xmlns="http://www.w3.org/2000/svg" version="1.1" xmlns:xlink="http://www.w3.org/1999/xlink" xmlns:svgjs="http://svgjs.com/svgjs" width="512" height="512"><svg fill="none" xmlns="http://www.w3.org/2000/svg" viewBox="0 0 512 512">
  <path d="M140.557 151.729a116.73 116.73 0 0 1-1.024-15.453C139.533 72.058 191.885 20 256.464 20c64.579 0 116.931 52.058 116.931 116.276 0 5.239-.348 10.397-1.024 15.453" stroke="#368C83" stroke-width="40" stroke-miterlimit="10" stroke-linecap="round" stroke-linejoin="round"></path>
  <path d="M253.847 353.298c-52.476 15.633-111.688 2.84-153.139-38.378-42.621-42.382-55.019-103.436-37.196-156.681 53.546-17.723 114.944-5.395 157.565 36.987a157.008 157.008 0 0 1 5.382 5.625c12.443 13.674 21.96 29.044 28.553 45.312M256.464 354.511V492" stroke="#368C83" stroke-width="40" stroke-miterlimit="10" stroke-linecap="round" stroke-linejoin="round"></path>
  <path d="M417.165 310.081c37.858-42.001 48.299-99.799 31.323-150.514-53.546-17.723-114.944-5.395-157.565 36.987a157.008 157.008 0 0 0-5.382 5.625c-38.259 42.045-48.863 100.123-31.814 151.056 24.52 8.116 50.686 9.93 75.941 5.442" stroke="#368C83" stroke-width="40" stroke-miterlimit="10" stroke-linecap="round" stroke-linejoin="round"></path>
</svg><style>@media (prefers-color-scheme: light) { :root { filter: none; } }
</style></svg>